<svg xmlns="http://www.w3.org/2000/svg" xmlns:xlink="http://www.w3.org/1999/xlink" viewBox="0 0 118.45 77.24"><defs><style>.cls-1{fill:url(#未命名的渐变_25);}.cls-2{fill:url(#未命名的渐变_25-2);}.cls-3{fill:url(#未命名的渐变_25-3);}.cls-4{fill:url(#未命名的渐变_25-4);}.cls-5{fill:url(#未命名的渐变_25-5);}.cls-6{fill:url(#未命名的渐变_25-6);}</style><linearGradient id="未命名的渐变_25" x1="-25.67" y1="11.01" x2="120.68" y2="29.71" gradientUnits="userSpaceOnUse"><stop offset="0" stop-color="#dbdbe5"/><stop offset="0.57" stop-color="#a7c6fa"/><stop offset="1" stop-color="#734bf2"/></linearGradient><linearGradient id="未命名的渐变_25-2" x1="-30.41" y1="49.2" x2="115.95" y2="67.9" xlink:href="#未命名的渐变_25"/><linearGradient id="未命名的渐变_25-3" x1="-30.41" y1="54.48" x2="114.51" y2="73.01" xlink:href="#未命名的渐变_25"/><linearGradient id="未命名的渐变_25-4" x1="-24.37" y1="5.88" x2="120.56" y2="24.41" xlink:href="#未命名的渐变_25"/><linearGradient id="未命名的渐变_25-5" x1="-12.45" y1="43.52" x2="119.46" y2="60.38" xlink:href="#未命名的渐变_25"/><linearGradient id="未命名的渐变_25-6" x1="-5.41" y1="5.74" x2="122.91" y2="22.15" xlink:href="#未命名的渐变_25"/></defs><g id="图层_2" data-name="图层 2"><g id="图层_1-2" data-name="图层 1"><path class="cls-1" d="M2,2H2a6.66,6.66,0,0,0,0,9.42L19.78,29.2a13.33,13.33,0,0,0,18.84,0h0L11.37,2A6.66,6.66,0,0,0,2,2Z"/><path class="cls-2" d="M75.29,65.87,57.46,48a13.33,13.33,0,0,0-18.84,0h0L65.87,75.29a6.66,6.66,0,0,0,9.42,0h0A6.66,6.66,0,0,0,75.29,65.87Z"/><path class="cls-3" d="M2,75.29H2a6.66,6.66,0,0,0,9.42,0L38.62,48h0a13.33,13.33,0,0,0-18.84,0L2,65.87A6.66,6.66,0,0,0,2,75.29Z"/><path class="cls-4" d="M75.29,2h0a6.66,6.66,0,0,0-9.42,0L38.62,29.2h0a13.33,13.33,0,0,0,18.84,0L75.29,11.37A6.66,6.66,0,0,0,75.29,2Z"/><path class="cls-5" d="M89.24,38.62,87,40.9a10.09,10.09,0,0,0,0,14.28l20.11,20.11a6.65,6.65,0,0,0,9.41,0h0a6.65,6.65,0,0,0,0-9.42Z"/><path class="cls-6" d="M107.08,2,87,22.06a10.09,10.09,0,0,0,0,14.28l2.27,2.28,27.25-27.25a6.65,6.65,0,0,0,0-9.42h0A6.65,6.65,0,0,0,107.08,2Z"/></g></g></svg>